<?xml version="1.0" encoding="utf-8"?>
<!-- Generator: Adobe Illustrator 19.0.0, SVG Export Plug-In . SVG Version: 6.00 Build 0)  -->
<svg version="1.1" id="Layer_1" xmlns="http://www.w3.org/2000/svg" xmlns:xlink="http://www.w3.org/1999/xlink" x="0px" y="0px"
	 viewBox="0 0 1920 1080" style="enable-background:new 0 0 1920 1080;" xml:space="preserve">
<g>
	<path d="M1044.3,702.9c2.7,8.7-1.9,18-10.4,21.2c-28.2,10.6-54.8,14.3-89.2,14.3C850.2,738.4,767,670.7,767,559
		c0-116.2,84.3-217,213-217c100.3,0,172,68.9,172,164.6c0,83.2-46.7,135.5-108.2,135.5c-26.8,0-46.2-13.7-49-43.9h-1.1
		c-17.7,29.1-43.3,43.9-73.5,43.9c-37,0-63.8-27.3-63.8-74c0-69.5,51.3-132.7,133.3-132.7c13.7,0,28.4,1.9,41.2,4.9
		c15.3,3.6,25.1,18.3,22.6,33.8l-13.1,81c-5.7,33.6-1.7,49,14.2,49.6c24.5,0.6,55.2-30.8,55.2-96.3c0-74-47.8-131.6-136.1-131.6
		c-87.1,0-163.5,68.4-163.5,177.2c0,95.1,61,149.2,145.8,149.2c22.6,0,46.2-3.8,66.3-11.1c4.3-1.6,9.1-1.3,13.3,0.7
		C1039.8,694.8,1042.9,698.5,1044.3,702.9L1044.3,702.9z M998.3,482.7c-4.6-1.1-10.3-2.3-17.7-2.3c-37.6,0-67.2,37-67.2,80.9
		c0,21.6,9.7,35.3,28.5,35.3c21.1,0,43.3-26.8,48.4-59.8L998.3,482.7z M998.3,482.7"/>
</g>
</svg>
