<?xml version="1.0" encoding="utf-8"?>
<!-- Generator: Adobe Illustrator 19.0.0, SVG Export Plug-In . SVG Version: 6.00 Build 0)  -->
<svg version="1.1" id="Layer_1" xmlns="http://www.w3.org/2000/svg" xmlns:xlink="http://www.w3.org/1999/xlink" x="0px" y="0px"
	 viewBox="0 0 1920 1080" style="enable-background:new 0 0 1920 1080;" xml:space="preserve">
<g>
	<path d="M981.2,533.7v-7c0-3.6-3.2-6.6-7.1-6.7v4.1c0,2.3-1.9,4.2-4.2,4.2c-2.3,0-4.2-1.9-4.2-4.2v-4.1h-12v4.1
		c0,2.3-1.9,4.2-4.2,4.2c-2.3,0-4.3-1.9-4.3-4.2v-4.1c-3.9,0.2-7,3.1-7,6.6v29.2c0,4.1,3.3,7.4,7.4,7.4h28.5c4.1,0,7.4-3.3,7.4-7.4
		V533.7z M978,555.9c0,2.3-1.9,4.2-4.2,4.2h-28.5c-2.3,0-4.2-1.9-4.2-4.2v-22.2H978V555.9z M978,555.9"/>
	<path d="M947.4,518.8v5.3c0,1,0.8,1.9,1.8,1.9c1,0,1.9-0.8,1.9-1.9v-5.3c0-1-0.8-1.8-1.9-1.8C948.2,517,947.4,517.8,947.4,518.8
		L947.4,518.8z M947.4,518.8"/>
	<path d="M969.8,517c-1,0-1.8,0.8-1.8,1.9v5.3c0,1,0.8,1.9,1.8,1.9c1,0,1.9-0.8,1.9-1.9v-5.3C971.7,517.8,970.8,517,969.8,517
		L969.8,517z M969.8,517"/>
	<path d="M954.2,555.8c2.1,0,3.7-0.6,4.7-1.7c1.1-1.2,1.6-2.5,1.6-4.1c0-1.5-0.5-2.6-1.4-3.5c-0.2-0.2-0.5-0.4-0.7-0.5
		c-0.4-0.2-0.4-0.4,0-0.7c0.2-0.2,0.4-0.3,0.6-0.5c0.6-0.7,1-1.6,1-2.7c0-1.5-0.5-2.7-1.6-3.6c-1.1-0.9-2.5-1.3-4.2-1.3
		c-0.9,0-1.7,0.1-2.4,0.3c-0.6,0.2-1.2,0.6-1.7,1c-0.6,0.6-1.1,1.3-1.4,2c-0.2,0.6-0.3,1.2-0.4,1.8c-0.1,0.4,0.3,0.8,0.7,0.8h1.7
		c0.4,0,0.8-0.4,0.8-0.8c0.1-0.5,0.3-1,0.5-1.3c0.4-0.5,1-0.8,1.9-0.8c0.7,0,1.3,0.2,1.7,0.7c0.4,0.4,0.6,1,0.6,1.7
		c0,1.1-0.4,1.8-1.2,2.1c-0.3,0.2-0.9,0.3-1.6,0.3c-0.4,0-0.8,0.4-0.8,0.8v1c0,0.4,0.4,0.8,0.8,0.8c0.8,0,1.4,0.1,1.8,0.3
		c1,0.4,1.5,1.2,1.5,2.4c0,0.9-0.3,1.6-0.8,2.1c-0.5,0.5-1.1,0.7-1.8,0.7c-1.1,0-1.9-0.4-2.4-1.3c-0.1-0.3-0.2-0.6-0.3-1
		c-0.1-0.4-0.4-0.8-0.9-0.8h-1.9c-0.4,0-0.8,0.4-0.7,0.8c0.1,1.1,0.4,2,0.8,2.7C949.9,555,951.7,555.8,954.2,555.8L954.2,555.8z
		 M954.2,555.8"/>
	<path d="M964.2,542.8h2.7c0.4,0,0.8,0.4,0.8,0.8v10.9c0,0.4,0.4,0.8,0.8,0.8h2.1c0.4,0,0.8-0.4,0.8-0.8V538c0-0.4-0.4-0.8-0.8-0.8
		h-1.4c-0.4,0-0.8,0.2-0.8,0.4c0,0.1-0.1,0.2-0.1,0.4c-0.2,0.5-0.4,1-0.7,1.3c-0.4,0.5-1,0.8-1.8,1c-0.3,0.1-0.9,0.1-1.6,0.2
		c-0.4,0-0.8,0.4-0.8,0.8v0.8C963.4,542.5,963.7,542.8,964.2,542.8L964.2,542.8z M964.2,542.8"/>
</g>
</svg>
