<?xml version="1.0" encoding="UTF-8" standalone="no"?>
<svg width="44px" height="47px" viewBox="0 0 44 47" version="1.1" xmlns="http://www.w3.org/2000/svg" xmlns:xlink="http://www.w3.org/1999/xlink" xmlns:sketch="http://www.bohemiancoding.com/sketch/ns">
    <!-- Generator: Sketch 3.3.2 (12043) - http://www.bohemiancoding.com/sketch -->
    <title>calendar70</title>
    <desc>Created with Sketch.</desc>
    <defs></defs>
    <g id="Page-1" stroke="none" stroke-width="1" fill="none" fill-rule="evenodd" sketch:type="MSPage">
        <g id="calendar70" sketch:type="MSLayerGroup" fill="#000000">
            <g id="Group" sketch:type="MSShapeGroup">
                <path d="M43.2,16.7 L43.2,9.7 C43.2,6.1 40,3.1 36.1,3 L36.1,7.1 C36.1,9.4 34.2,11.3 31.9,11.3 C29.6,11.3 27.7,9.4 27.7,7.1 L27.7,3 L15.7,3 L15.7,7.1 C15.7,9.4 13.8,11.3 11.5,11.3 C9.2,11.3 7.2,9.4 7.2,7.1 L7.2,3 C3.3,3.2 0.2,6.1 0.2,9.6 L0.2,38.8 C0.2,42.9 3.5,46.2 7.6,46.2 L36.1,46.2 C40.2,46.2 43.5,42.9 43.5,38.8 L43.5,16.7 L43.2,16.7 Z M40,38.9 C40,41.2 38.1,43.1 35.8,43.1 L7.3,43.1 C5,43.1 3.1,41.2 3.1,38.9 L3.1,16.7 L40,16.7 L40,38.9 L40,38.9 Z" id="Shape"></path>
                <path d="M9.4,1.8 L9.4,7.1 C9.4,8.1 10.2,9 11.2,9 C12.2,9 13.1,8.2 13.1,7.1 L13.1,1.8 C13.1,0.8 12.3,0 11.2,0 C10.2,0 9.4,0.8 9.4,1.8 L9.4,1.8 L9.4,1.8 Z" id="Shape"></path>
                <path d="M31.8,0 C30.8,0 30,0.8 30,1.9 L30,7.2 C30,8.2 30.8,9.1 31.8,9.1 C32.8,9.1 33.7,8.3 33.7,7.2 L33.7,1.9 C33.7,0.8 32.8,0 31.8,0 L31.8,0 L31.8,0 Z" id="Shape"></path>
                <path d="M16.2,38.8 C18.3,38.8 19.9,38.2 20.9,37.1 C22,35.9 22.5,34.6 22.5,33 C22.5,31.5 22,30.4 21.1,29.5 C20.9,29.3 20.6,29.1 20.4,29 C20,28.8 20,28.6 20.4,28.3 C20.6,28.1 20.8,28 21,27.8 C21.6,27.1 22,26.2 22,25.1 C22,23.6 21.5,22.4 20.4,21.5 C19.3,20.6 17.9,20.2 16.2,20.2 C15.3,20.2 14.5,20.3 13.8,20.5 C13.2,20.7 12.6,21.1 12.1,21.5 C11.5,22.1 11,22.8 10.7,23.5 C10.5,24.1 10.4,24.7 10.3,25.3 C10.2,25.7 10.6,26.1 11,26.1 L12.7,26.1 C13.1,26.1 13.5,25.7 13.5,25.3 C13.6,24.8 13.8,24.3 14,24 C14.4,23.5 15,23.2 15.9,23.2 C16.6,23.2 17.2,23.4 17.6,23.9 C18,24.3 18.2,24.9 18.2,25.6 C18.2,26.7 17.8,27.4 17,27.7 C16.7,27.9 16.1,28 15.4,28 C15,28 14.6,28.4 14.6,28.8 L14.6,29.8 C14.6,30.2 15,30.6 15.4,30.6 C16.2,30.6 16.8,30.7 17.2,30.9 C18.2,31.3 18.7,32.1 18.7,33.3 C18.7,34.2 18.4,34.9 17.9,35.4 C17.4,35.9 16.8,36.1 16.1,36.1 C15,36.1 14.2,35.7 13.7,34.8 C13.6,34.5 13.5,34.2 13.4,33.8 C13.3,33.4 13,33 12.5,33 L10.6,33 C10.2,33 9.8,33.4 9.9,33.8 C10,34.9 10.3,35.8 10.7,36.5 C11.9,38 13.7,38.8 16.2,38.8 L16.2,38.8 L16.2,38.8 Z" id="Shape"></path>
                <path d="M26.2,25.8 L28.9,25.8 C29.3,25.8 29.7,26.2 29.7,26.6 L29.7,37.5 C29.7,37.9 30.1,38.3 30.5,38.3 L32.6,38.3 C33,38.3 33.4,37.9 33.4,37.5 L33.4,21 C33.4,20.6 33,20.2 32.6,20.2 L31.2,20.2 C30.8,20.2 30.4,20.4 30.4,20.6 C30.4,20.7 30.3,20.8 30.3,21 C30.1,21.5 29.9,22 29.6,22.3 C29.2,22.8 28.6,23.1 27.8,23.3 C27.5,23.4 26.9,23.4 26.2,23.5 C25.8,23.5 25.4,23.9 25.4,24.3 L25.4,25.1 C25.4,25.5 25.7,25.8 26.2,25.8 L26.2,25.8 L26.2,25.8 Z" id="Shape"></path>
            </g>
        </g>
    </g>
</svg>