<?xml version="1.0" encoding="UTF-8" standalone="no"?>
<svg width="385px" height="397px" viewBox="0 0 385 397" version="1.1" xmlns="http://www.w3.org/2000/svg" xmlns:xlink="http://www.w3.org/1999/xlink" xmlns:sketch="http://www.bohemiancoding.com/sketch/ns">
    <!-- Generator: Sketch 3.3.2 (12043) - http://www.bohemiancoding.com/sketch -->
    <title>at9</title>
    <desc>Created with Sketch.</desc>
    <defs></defs>
    <g id="Page-1" stroke="none" stroke-width="1" fill="none" fill-rule="evenodd" sketch:type="MSPage">
        <g id="at9" sketch:type="MSLayerGroup" fill="#000000">
            <path d="M277.3,360.9 C280,369.6 275.4,378.9 266.9,382.1 C238.7,392.7 212.1,396.4 177.7,396.4 C83.2,396.4 0,328.7 0,217 C0,100.8 84.3,5.68434189e-14 213,5.68434189e-14 C313.3,5.68434189e-14 385,68.9 385,164.6 C385,247.8 338.3,300.1 276.8,300.1 C250,300.1 230.6,286.4 227.8,256.2 L226.7,256.2 C209,285.3 183.4,300.1 153.2,300.1 C116.2,300.1 89.4,272.8 89.4,226.1 C89.4,156.6 140.7,93.4 222.7,93.4 C236.4,93.4 251.1,95.3 263.9,98.3 C279.2,101.9 289,116.6 286.5,132.1 L273.4,213.1 C267.7,246.7 271.7,262.1 287.6,262.7 C312.1,263.3 342.8,231.9 342.8,166.4 C342.8,92.4 295,34.8 206.7,34.8 C119.6,34.8 43.2,103.2 43.2,212 C43.2,307.1 104.2,361.2 189,361.2 C211.6,361.2 235.2,357.4 255.3,350.1 C259.6,348.5 264.4,348.8 268.6,350.8 C272.8,352.8 275.9,356.5 277.3,360.9 L277.3,360.9 L277.3,360.9 Z M231.3,140.7 C226.7,139.6 221,138.4 213.6,138.4 C176,138.4 146.4,175.4 146.4,219.3 C146.4,240.9 156.1,254.6 174.9,254.6 C196,254.6 218.2,227.8 223.3,194.8 L231.3,140.7 L231.3,140.7 Z" id="Shape" sketch:type="MSShapeGroup"></path>
        </g>
    </g>
</svg>