<?xml version="1.0" encoding="utf-8"?>
<!-- Generator: Adobe Illustrator 19.0.0, SVG Export Plug-In . SVG Version: 6.00 Build 0)  -->
<svg version="1.1" id="Layer_1" xmlns="http://www.w3.org/2000/svg" xmlns:xlink="http://www.w3.org/1999/xlink" x="0px" y="0px"
	 viewBox="0 0 1920 1080" style="enable-background:new 0 0 1920 1080;" xml:space="preserve">
<g>
	<path d="M999.6,495h-80c-5.3,0-9.6,4.3-9.6,9.6c0,5.3,4.3,9.6,9.6,9.6h80c5.3,0,9.6-4.3,9.6-9.6C1009.2,499.3,1004.9,495,999.6,495
		L999.6,495z M999.6,495"/>
	<path d="M999.6,530.2h-80c-5.3,0-9.6,4.3-9.6,9.6c0,5.3,4.3,9.6,9.6,9.6h80c5.3,0,9.6-4.3,9.6-9.6
		C1009.2,534.5,1004.9,530.2,999.6,530.2L999.6,530.2z M999.6,530.2"/>
	<path d="M999.6,565.4h-80c-5.3,0-9.6,4.3-9.6,9.6s4.3,9.6,9.6,9.6h80c5.3,0,9.6-4.3,9.6-9.6S1004.9,565.4,999.6,565.4L999.6,565.4z
		 M999.6,565.4"/>
</g>
</svg>
