<?xml version="1.0" encoding="utf-8"?>
<!-- Generator: Adobe Illustrator 19.0.0, SVG Export Plug-In . SVG Version: 6.00 Build 0)  -->
<svg version="1.1" id="Layer_1" xmlns="http://www.w3.org/2000/svg" xmlns:xlink="http://www.w3.org/1999/xlink" x="0px" y="0px"
	 viewBox="0 0 1920 1080" style="enable-background:new 0 0 1920 1080;" xml:space="preserve">
<style type="text/css">
	.st0{clip-path:url(#SVGID_2_);fill-rule:evenodd;clip-rule:evenodd;}
	.st1{fill-rule:evenodd;clip-rule:evenodd;}
	.st2{clip-path:url(#SVGID_4_);fill-rule:evenodd;clip-rule:evenodd;}
</style>
<g>
	<g>
		<defs>
			<rect id="SVGID_1_" x="761" y="345" width="397.9" height="392"/>
		</defs>
		<clipPath id="SVGID_2_">
			<use xlink:href="#SVGID_1_"  style="overflow:visible;"/>
		</clipPath>
		<path class="st0" d="M1078.8,643.1l7-7c-27.2-23.7-62.2-62.9-92.2-92c3.7-7.4,1.5-16.6-5.6-21.3c-32.4-21.5-44.6-36.9-58.8-54.8
			c-6.4-8-12.9-16.3-21.6-25.7c-0.8-0.9-1.7-1.6-2.6-2.3c-3.4-3.1-7.1-5.8-11-7.6c0,0-4.1-2.3-8.8-3.2c-4.5-0.9-9.7-0.9-9.7-0.9
			h-0.1c-0.5,0-1,0.1-1.5,0.1c-0.4,0-0.7,0-1.1,0c-0.6,0.1-1.2,0.2-1.9,0.3c-0.7,0.1-1.3,0.2-2,0.3c-32.4,5.1-66.6,30.4-104.2,77.3
			c-5.8,7.2-4.6,17.6,2.6,23.4c3.1,2.5,6.7,3.7,10.4,3.7c4.9,0,9.7-2.1,13-6.2c16.2-20.1,30.3-34.3,42.6-44.2l-13.7,63.7
			c-2,9.2,0.6,17.6,5.7,24.5l-4.3,65.6l-27.3,70.7c-4.2,10.9,1.2,23.2,12.1,27.4c2.5,1,5.1,1.4,7.6,1.4c8.5,0,16.5-5.1,19.7-13.5
			l28.5-73.7c0.8-2,1.2-4.1,1.4-6.2l2.5-38.2l25.2,39.7l20.8,76.2c2.5,9.5,11.1,15.7,20.4,15.7c1.8,0,3.6-0.2,5.5-0.7
			c11.3-3,18-14.6,15-25.9l-21.7-79.4c-0.5-2.1-1.4-4.1-2.6-5.9l-34.3-54.2c1.1-2.2,2-4.5,2.6-7.1l14-65.4
			c13.1,16.1,28.2,32.2,59.2,52.8c2.8,1.9,6,2.8,9.2,2.8c3.2,0,6.3-1,9.1-2.8C1015.6,577.3,1050.6,618.5,1078.8,643.1L1078.8,643.1z
			 M1078.8,643.1"/>
	</g>
	<path class="st1" d="M947.2,387.8c0,23.7-19.2,42.8-42.8,42.8c-23.7,0-42.8-19.2-42.8-42.8c0-23.7,19.2-42.8,42.8-42.8
		C928,345,947.2,364.2,947.2,387.8L947.2,387.8z M947.2,387.8"/>
	<g>
		<defs>
			<rect id="SVGID_3_" x="761" y="345" width="397.9" height="392"/>
		</defs>
		<clipPath id="SVGID_4_">
			<use xlink:href="#SVGID_3_"  style="overflow:visible;"/>
		</clipPath>
		<path class="st2" d="M1035,648l-14.8-11.9c-3.3-2.7-8.2-2.2-10.9,1.2c-2.7,3.3-2.2,8.2,1.2,10.9l15.1,12.1v33c0,0.2,0,0.4,0.1,0.5
			l-13.3,25.5c-2,3.8-0.5,8.5,3.3,10.5c1.1,0.6,2.4,0.9,3.6,0.9c2.8,0,5.5-1.5,6.9-4.2l13.4-25.7l15,26c1.4,2.5,4.1,3.9,6.7,3.9
			c1.3,0,2.6-0.3,3.9-1c3.7-2.1,5-6.9,2.9-10.6l-13.1-22.7h48.4V723c0,4.3,3.5,7.8,7.8,7.8c4.3,0,7.8-3.5,7.8-7.8v-29.1
			c0-0.2,0.1-0.4,0.1-0.6v-24.6l-36.2-20.8H1035z M1035,648"/>
		<path class="st2" d="M1138.9,632.2c-4.8-4.5-6.4-9.8-11.8-13.7c-0.9-0.7-1.9-1.3-2.9-1.9c-0.6-0.3-0.8-0.7-0.7-1.4
			c0.2-2.2,0.5-4.5,0.6-6.7c0.3-4-0.8-7.6-4-10c-1.3-0.9-7.6-4-10.4,6.5c-0.6,2.3-1.4,4.6-2.5,6.7c-4,7.7-9.1,14.7-13.9,21.8
			c-2.2,3.3-4.4,6.5-6.6,9.8l34,19.4c0,0,6.6-7.2,7.5-6.8c1.3,0.6,2.6,1.1,3.8,1.7c3.7,1.6,7.6,2.4,11.7,2.1
			c6.9-0.4,14.2-4.1,14.8-12.4C1159.1,639.7,1140.6,633.7,1138.9,632.2L1138.9,632.2z M1138.9,632.2"/>
	</g>
</g>
</svg>
