<?xml version="1.0" encoding="UTF-8" standalone="no"?>
<svg width="18px" height="18px" viewBox="0 0 18 18" version="1.1" xmlns="http://www.w3.org/2000/svg" xmlns:xlink="http://www.w3.org/1999/xlink" xmlns:sketch="http://www.bohemiancoding.com/sketch/ns">
    <!-- Generator: Sketch 3.3.2 (12043) - http://www.bohemiancoding.com/sketch -->
    <title>social24</title>
    <desc>Created with Sketch.</desc>
    <defs></defs>
    <g id="Page-1" stroke="none" stroke-width="1" fill="none" fill-rule="evenodd" sketch:type="MSPage">
        <g id="social24" sketch:type="MSLayerGroup" fill="#000000">
            <path d="M14.2,11.2 C13.2,11.2 12.3,11.7 11.7,12.4 L6.3,9.6 C6.4,9.3 6.4,9.1 6.4,8.8 C6.4,8.5 6.3,8.2 6.3,7.9 L11.7,5.1 C12.3,5.9 13.2,6.4 14.3,6.4 C16.1,6.4 17.5,5 17.5,3.2 C17.5,1.4 16.1,2.27373675e-13 14.3,2.27373675e-13 C12.5,2.27373675e-13 11.1,1.4 11.1,3.2 C11.1,3.5 11.2,3.8 11.2,4 L5.8,6.8 C5.2,6.1 4.3,5.6 3.3,5.6 C1.5,5.6 0.1,7 0.1,8.8 C0.1,10.6 1.5,12 3.3,12 C4.3,12 5.3,11.5 5.9,10.7 L11.3,13.5 C11.2,13.8 11.2,14.1 11.2,14.4 C11.2,16.2 12.6,17.6 14.4,17.6 C16.2,17.6 17.6,16.2 17.6,14.4 C17.4,12.6 16,11.2 14.2,11.2 L14.2,11.2 L14.2,11.2 Z" id="Shape" sketch:type="MSShapeGroup"></path>
        </g>
    </g>
</svg>