<?xml version="1.0" encoding="utf-8"?>
<!-- Generator: Adobe Illustrator 19.0.0, SVG Export Plug-In . SVG Version: 6.00 Build 0)  -->
<svg version="1.1" id="Layer_1" xmlns="http://www.w3.org/2000/svg" xmlns:xlink="http://www.w3.org/1999/xlink" x="0px" y="0px"
	 viewBox="0 0 1920 1080" style="enable-background:new 0 0 1920 1080;" xml:space="preserve">
<g>
	<path d="M965.2,542.2c-1,0-1.9,0.5-2.5,1.2l-5.4-2.8c0.1-0.3,0.1-0.5,0.1-0.8c0-0.3-0.1-0.6-0.1-0.9l5.4-2.8
		c0.6,0.8,1.5,1.3,2.6,1.3c1.8,0,3.2-1.4,3.2-3.2c0-1.8-1.4-3.2-3.2-3.2c-1.8,0-3.2,1.4-3.2,3.2c0,0.3,0.1,0.6,0.1,0.8l-5.4,2.8
		c-0.6-0.7-1.5-1.2-2.5-1.2c-1.8,0-3.2,1.4-3.2,3.2c0,1.8,1.4,3.2,3.2,3.2c1,0,2-0.5,2.6-1.3l5.4,2.8c-0.1,0.3-0.1,0.6-0.1,0.9
		c0,1.8,1.4,3.2,3.2,3.2c1.8,0,3.2-1.4,3.2-3.2C968.4,543.6,967,542.2,965.2,542.2L965.2,542.2z M965.2,542.2"/>
</g>
</svg>
