<?xml version="1.0" encoding="utf-8"?>
<!-- Generator: Adobe Illustrator 19.0.0, SVG Export Plug-In . SVG Version: 6.00 Build 0)  -->
<svg version="1.1" id="Layer_1" xmlns="http://www.w3.org/2000/svg" xmlns:xlink="http://www.w3.org/1999/xlink" x="0px" y="0px"
	 viewBox="0 0 1920 1080" style="enable-background:new 0 0 1920 1080;" xml:space="preserve">
<style type="text/css">
	.st0{clip-path:url(#SVGID_2_);}
</style>
<g>
	<g>
		<defs>
			<rect id="SVGID_1_" x="936" y="529" width="48" height="24"/>
		</defs>
		<clipPath id="SVGID_2_">
			<use xlink:href="#SVGID_1_"  style="overflow:visible;"/>
		</clipPath>
		<path class="st0" d="M978.9,539.6c-1.4-0.3-3.8-0.3-6.7-0.8l0.4,2.4c0.1,0.4-0.2,0.8-0.6,0.9c0,0-0.1,0-0.1,0
			c-0.4,0-0.7-0.3-0.7-0.6l-0.4-2.5c0-0.3-0.3-0.5-0.6-0.6c-0.1,0-0.3-0.1-0.4-0.1c-0.3-0.1-0.4,0.1-0.4,0.3l0.2,1.2
			c0.1,0.4-0.2,0.8-0.6,0.9c0,0-0.1,0-0.1,0c-0.4,0-0.7-0.3-0.7-0.6l-0.3-2c0-0.3-0.3-0.6-0.5-0.7c-0.2-0.1-0.4-0.1-0.5-0.2
			c-0.2-0.1-0.4,0-0.4,0.3l0.2,1.1c0.1,0.4-0.2,0.8-0.6,0.9c0,0-0.1,0-0.1,0c-0.4,0-0.7-0.3-0.7-0.6l-0.4-2.2c0-0.3-0.3-0.6-0.5-0.7
			c-0.2-0.1-0.4-0.3-0.7-0.4c-0.2-0.1-0.4-0.1-0.3,0.2l0.2,1.5c0.1,0.4-0.2,0.8-0.6,0.9c0,0-0.1,0-0.1,0c-0.4,0-0.7-0.3-0.7-0.6
			l-0.6-3.8c-0.1-0.2-0.3-0.3-0.4-0.5c-0.9-1.2-2.7-3.4-4.2-3.9c-1.6-0.6-2.8,0.6-3.1,1.6c-0.1,0.5,0.1,1.4,0.3,1.9
			c0.1,0.3,0.3,0.7,0.5,1c0.4,0.4,0.5,0.8,0.1,1.2c-1,0.8-2.8,2.2-4.9,3c-4.1,1.5-4.8-0.6-4.8-0.6s-0.9-2.9-2.4-4
			c-0.4-0.3-1.4-0.4-1.9-0.3c-0.2,0-0.4,0.1-0.5,0.2c0.3,1.9,1.8,6.5,8,9.5c8.1,3.9,24.2,4.7,27.2,4.8c0.3,0,0.3,0.1,0,0.1
			c-2,0.3-9.6,1.5-17.2,0.5c-9.3-1.1-17.9-3.8-20.1-11.4c0,0.2-0.1,0.3-0.1,0.4c-0.4,1.1-0.7,1.9-0.8,4.4c0,0.5-0.2,1.4-0.4,1.9
			c-0.2,0.6-0.5,1.5-0.5,2.6c0,1.1,0,2.1,0,2.7c0,0.5,0.4,1.3,0.8,1.6c0.3,0.2,0.8,0.4,1.2,0.5c0.5,0.1,1.3,0.4,1.9,0.5
			c0.2,0.1,0.5,0.1,0.8,0.2c0.5,0.1,1.2,0,1.4,0c0.2,0,0.4,0.1,0.4,0.3c0,0.1,0.3,0.3,0.6,0.3c0.4,0,0.7-0.1,0.9-0.3
			c0.1-0.2,0.4-0.3,0.6-0.3c0.2,0,0.3,0.1,0.3,0.3c0,0.2,0.3,0.3,0.6,0.3c0.3,0,0.7-0.2,0.8-0.3c0.1-0.2,0.3-0.4,0.5-0.4
			c0.2,0,0.4,0.2,0.5,0.4c0.1,0.2,0.5,0.3,0.8,0.3s0.6-0.1,0.7-0.3c0.1-0.2,0.4-0.2,0.6,0c0.2,0.2,0.7,0.3,1.1,0.3
			c0.4,0,0.8-0.1,0.8-0.3c0.1-0.1,0.3-0.3,0.5-0.3c0.2,0,0.5,0.1,0.6,0.3c0.1,0.1,0.5,0.2,0.9,0.1c0.4-0.1,0.8-0.3,0.9-0.5
			c0.1-0.2,0.3-0.2,0.5-0.1c0.2,0.2,0.6,0.3,1,0.4c0.4,0.1,0.8,0,1-0.1c0.2-0.1,0.5-0.2,0.7-0.2c0.2,0,0.3,0.2,0.3,0.4
			c0,0.2,0.3,0.3,0.7,0.3c0.4,0,0.8-0.1,0.9-0.2c0.1-0.1,0.4-0.2,0.6-0.1c0.2,0,0.4,0.2,0.4,0.3c0,0.1,0.2,0.2,0.4,0.2
			c0.2,0,0.6-0.1,0.8-0.2c0.2-0.1,0.5-0.1,0.6-0.1c0.1,0,0.2,0.1,0.2,0.3c0,0.1,0.4,0.2,1,0.2h0.1c0.5,0,1-0.1,1-0.3
			c0-0.2,0.2-0.3,0.4-0.3c0.2,0,0.3,0.1,0.3,0.3c0,0.2,0.4,0.3,0.9,0.3c0.5,0,1-0.1,1.2-0.2c0.2-0.1,0.5-0.1,0.7,0
			c0.2,0.1,0.7,0.2,1.3,0.2c0.5,0,1.1-0.1,1.2-0.3c0.1-0.2,0.4-0.3,0.6-0.4c0.2-0.1,0.4,0,0.5,0.2c0.1,0.2,0.6,0.2,1.1,0.1l0.2,0
			c0.5-0.1,1-0.4,1.1-0.6c0.1-0.2,0.2-0.4,0.4-0.4c0.1,0,0.3,0.1,0.5,0.3c0.1,0.2,0.5,0.2,0.9,0.1c0.4-0.1,0.7-0.4,0.8-0.8
			c0.1-0.3,0.3-0.6,0.5-0.7c0.2-0.1,0.4,0,0.4,0.3c0,0.2,0.4,0.3,0.9,0.1c0.5-0.2,0.9-0.5,0.9-0.8c0-0.2,0.1-0.5,0.3-0.5
			c0.2-0.1,0.4,0,0.5,0.1c0.1,0.1,0.4,0,0.7-0.2c0.3-0.2,0.5-0.5,0.6-0.7c0-0.2,0.5-0.6,0.9-0.9c0.8-0.8,1.9-2.3,1.4-4.6
			C982.5,539.2,981.9,540.2,978.9,539.6L978.9,539.6z M978.9,539.6"/>
	</g>
</g>
</svg>
