<?xml version="1.0" encoding="utf-8"?>
<!-- Generator: Adobe Illustrator 19.0.0, SVG Export Plug-In . SVG Version: 6.00 Build 0)  -->
<svg version="1.1" id="Layer_1" xmlns="http://www.w3.org/2000/svg" xmlns:xlink="http://www.w3.org/1999/xlink" x="0px" y="0px"
	 viewBox="0 0 1920 1080" style="enable-background:new 0 0 1920 1080;" xml:space="preserve">
<g>
	<path d="M959.2,529c-6.2,0-11.2,5-11.2,11.2c0,6.2,5,11.2,11.2,11.2c6.2,0,11.2-5,11.2-11.2C970.4,534,965.4,529,959.2,529
		L959.2,529z M959.2,550.2c-5.5,0-10-4.5-10-10s4.5-10,10-10c5.5,0,10,4.5,10,10S964.7,550.2,959.2,550.2L959.2,550.2z M959.2,550.2
		"/>
	<path d="M960.5,542.7l0.5-10.1h-3.5l0.5,10.1H960.5z M960.5,542.7"/>
	<path d="M959.2,543.8c-1.2,0-2,0.8-2,2c0,1.2,0.8,2,2,2h0c1.2,0,2-0.9,2-2C961.2,544.7,960.4,543.8,959.2,543.8L959.2,543.8z
		 M959.2,543.8"/>
</g>
</svg>
