<?xml version="1.0" encoding="UTF-8" standalone="no"?>
<svg width="72px" height="61px" viewBox="0 0 72 61" version="1.1" xmlns="http://www.w3.org/2000/svg" xmlns:xlink="http://www.w3.org/1999/xlink" xmlns:sketch="http://www.bohemiancoding.com/sketch/ns">
    <!-- Generator: Sketch 3.3.2 (12043) - http://www.bohemiancoding.com/sketch -->
    <title>water_level</title>
    <desc>Created with Sketch.</desc>
    <defs></defs>
    <g id="Page-1" stroke="none" stroke-width="1" fill="none" fill-rule="evenodd" sketch:type="MSPage">
        <g id="water_level" sketch:type="MSLayerGroup" transform="translate(-1.000000, 0.000000)" fill="#000000">
            <path d="M7.6,16 C14.6,10 20.1,5.3 35.1,13.7 C42.3,17.8 48.1,19.3 52.9,19.3 C61.4,19.3 66.8,14.6 71.6,10.5 C73.3,9.1 73.5,6.5 72.1,4.7 C70.7,3 68.2,2.8 66.5,4.2 C59.5,10.2 54,14.9 39,6.5 C19.2,-4.7 9.9,3.3 2.5,9.7 C0.8,11.1 0.6,13.7 2,15.5 C3.4,17.3 5.9,17.5 7.6,16 L7.6,16 L7.6,16 Z M66.4,24.7 C59.4,30.7 53.9,35.4 38.9,27 C19.1,15.8 9.8,23.8 2.4,30.2 C0.7,31.7 0.5,34.2 1.9,36 C3.3,37.7 5.8,37.9 7.5,36.5 C14.5,30.5 20,25.8 35,34.2 C42.2,38.3 48,39.8 52.8,39.8 C61.3,39.8 66.7,35.1 71.5,31 C73.2,29.5 73.4,27 72,25.2 C70.6,23.5 68.1,23.3 66.4,24.7 L66.4,24.7 L66.4,24.7 Z M66.4,45.2 C59.4,51.2 53.9,55.9 38.9,47.5 C19.1,36.3 9.8,44.3 2.4,50.7 C0.7,52.2 0.5,54.7 1.9,56.5 C3.3,58.2 5.8,58.4 7.5,57 C14.5,51 20,46.3 35,54.7 C42.2,58.8 48,60.3 52.8,60.3 C61.3,60.3 66.7,55.6 71.5,51.5 C73.2,50 73.4,47.5 72,45.7 C70.6,43.9 68.1,43.7 66.4,45.2 L66.4,45.2 L66.4,45.2 Z" id="Shape" sketch:type="MSShapeGroup"></path>
        </g>
    </g>
</svg>