<?xml version="1.0" encoding="utf-8"?>
<!-- Generator: Adobe Illustrator 19.0.0, SVG Export Plug-In . SVG Version: 6.00 Build 0)  -->
<svg version="1.1" id="Layer_1" xmlns="http://www.w3.org/2000/svg" xmlns:xlink="http://www.w3.org/1999/xlink" x="0px" y="0px"
	 viewBox="0 0 1920 1080" style="enable-background:new 0 0 1920 1080;" xml:space="preserve">
<style type="text/css">
	.st0{clip-path:url(#SVGID_2_);}
</style>
<g>
	<g>
		<defs>
			<rect id="SVGID_1_" x="924" y="511" width="72" height="60"/>
		</defs>
		<clipPath id="SVGID_2_">
			<use xlink:href="#SVGID_1_"  style="overflow:visible;"/>
		</clipPath>
		<path class="st0" d="M930.6,526c7-6,12.5-10.7,27.5-2.3c7.2,4.1,13,5.6,17.8,5.6c8.5,0,13.9-4.7,18.7-8.8c1.7-1.4,1.9-4,0.5-5.8
			c-1.4-1.7-3.9-1.9-5.6-0.5c-7,6-12.5,10.7-27.5,2.3c-19.8-11.2-29.1-3.2-36.5,3.2c-1.7,1.4-1.9,4-0.5,5.8
			C926.4,527.3,928.9,527.5,930.6,526L930.6,526z M989.4,534.7c-7,6-12.5,10.7-27.5,2.3c-19.8-11.2-29.1-3.2-36.5,3.2
			c-1.7,1.5-1.9,4-0.5,5.8c1.4,1.7,3.9,1.9,5.6,0.5c7-6,12.5-10.7,27.5-2.3c7.2,4.1,13,5.6,17.8,5.6c8.5,0,13.9-4.7,18.7-8.8
			c1.7-1.5,1.9-4,0.5-5.8C993.6,533.5,991.1,533.3,989.4,534.7L989.4,534.7z M989.4,555.2c-7,6-12.5,10.7-27.5,2.3
			c-19.8-11.2-29.1-3.2-36.5,3.2c-1.7,1.5-1.9,4-0.5,5.8c1.4,1.7,3.9,1.9,5.6,0.5c7-6,12.5-10.7,27.5-2.3c7.2,4.1,13,5.6,17.8,5.6
			c8.5,0,13.9-4.7,18.7-8.8c1.7-1.5,1.9-4,0.5-5.8C993.6,553.9,991.1,553.7,989.4,555.2L989.4,555.2z M989.4,555.2"/>
	</g>
</g>
</svg>
