<?xml version="1.0" encoding="utf-8"?>
<!-- Generator: Adobe Illustrator 19.0.0, SVG Export Plug-In . SVG Version: 6.00 Build 0)  -->
<svg version="1.1" id="Layer_1" xmlns="http://www.w3.org/2000/svg" xmlns:xlink="http://www.w3.org/1999/xlink" x="0px" y="0px"
	 viewBox="0 0 1920 1080" style="enable-background:new 0 0 1920 1080;" xml:space="preserve">
<g>
	<path d="M971.8,523c-0.6,0-1.1,0.1-1.6,0.4c-1-2-3.1-3.4-5.5-3.4c-1.6,0-3,0.6-4.1,1.5c-1.8-1.6-4.2-2.5-6.9-2.5
		c-5.6,0-10.1,4.2-10.2,9.5c-2.1,1-3.6,3.1-3.6,5.6c0,2.8,1.9,5.2,4.6,5.9l28.3,0.2c3.3-0.1,5.9-2.8,5.9-6.1c0-2.4-1.3-4.4-3.3-5.4
		c0.2-0.5,0.3-1,0.3-1.6C975.8,524.8,974.1,523,971.8,523L971.8,523z M971.8,523"/>
	<path d="M949.7,550.2c0.7-1.4,0.8-7.6,0.8-7.6s-5.1,3.7-5.8,5.1s-0.2,3.1,1.2,3.8S949,551.5,949.7,550.2L949.7,550.2z M949.7,550.2
		"/>
	<path d="M960.1,550.2c0.7-1.4,0.8-7.6,0.8-7.6s-5.1,3.7-5.8,5.1c-0.7,1.4-0.2,3.1,1.2,3.8S959.4,551.5,960.1,550.2L960.1,550.2z
		 M960.1,550.2"/>
	<path d="M967.6,551.4c1.4,0.7,3.1,0.2,3.8-1.2c0.7-1.4,0.8-7.6,0.8-7.6s-5.1,3.7-5.8,5.1C965.6,549,966.2,550.6,967.6,551.4
		L967.6,551.4z M967.6,551.4"/>
	<path d="M948.4,561.8c1.4,0.7,3.1,0.2,3.8-1.2c0.7-1.4,0.8-7.6,0.8-7.6s-5.1,3.7-5.8,5.1S947,561,948.4,561.8L948.4,561.8z
		 M948.4,561.8"/>
	<path d="M958.8,561.8c1.4,0.7,3.1,0.2,3.8-1.2c0.7-1.4,0.8-7.6,0.8-7.6s-5.1,3.7-5.8,5.1C956.8,559.4,957.4,561,958.8,561.8
		L958.8,561.8z M958.8,561.8"/>
</g>
</svg>
