<?xml version="1.0" encoding="UTF-8" standalone="no"?>
<svg width="40px" height="44px" viewBox="0 0 40 44" version="1.1" xmlns="http://www.w3.org/2000/svg" xmlns:xlink="http://www.w3.org/1999/xlink" xmlns:sketch="http://www.bohemiancoding.com/sketch/ns">
    <!-- Generator: Sketch 3.3.2 (12043) - http://www.bohemiancoding.com/sketch -->
    <title>weather</title>
    <desc>Created with Sketch.</desc>
    <defs></defs>
    <g id="Page-1" stroke="none" stroke-width="1" fill="none" fill-rule="evenodd" sketch:type="MSPage">
        <g id="weather" sketch:type="MSLayerGroup" fill="#000000">
            <g id="Group" sketch:type="MSShapeGroup">
                <path d="M32.8,4 C32.2,4 31.7,4.1 31.2,4.4 C30.2,2.4 28.1,1 25.7,1 C24.1,1 22.7,1.6 21.6,2.5 C19.8,0.9 17.4,0 14.7,0 C9.1,0 4.6,4.2 4.5,9.5 C2.4,10.5 0.9,12.6 0.9,15.1 C0.9,17.9 2.8,20.3 5.5,21 L33.8,21.2 C37.1,21.1 39.7,18.4 39.7,15.1 C39.7,12.7 38.4,10.7 36.4,9.7 C36.6,9.2 36.7,8.7 36.7,8.1 C36.8,5.8 35.1,4 32.8,4 L32.8,4 L32.8,4 Z" id="Shape"></path>
                <path d="M10.7,31.2 C11.4,29.8 11.5,23.6 11.5,23.6 C11.5,23.6 6.4,27.3 5.7,28.7 C5,30.1 5.5,31.8 6.9,32.5 C8.3,33.2 10,32.5 10.7,31.2 L10.7,31.2 L10.7,31.2 Z" id="Shape"></path>
                <path d="M21.1,31.2 C21.8,29.8 21.9,23.6 21.9,23.6 C21.9,23.6 16.8,27.3 16.1,28.7 C15.4,30.1 15.9,31.8 17.3,32.5 C18.7,33.2 20.4,32.5 21.1,31.2 L21.1,31.2 L21.1,31.2 Z" id="Shape"></path>
                <path d="M28.6,32.4 C30,33.1 31.7,32.6 32.4,31.2 C33.1,29.8 33.2,23.6 33.2,23.6 C33.2,23.6 28.1,27.3 27.4,28.7 C26.6,30 27.2,31.6 28.6,32.4 L28.6,32.4 L28.6,32.4 Z" id="Shape"></path>
                <path d="M9.4,42.8 C10.8,43.5 12.5,43 13.2,41.6 C13.9,40.2 14,34 14,34 C14,34 8.9,37.7 8.2,39.1 C7.5,40.5 8,42 9.4,42.8 L9.4,42.8 L9.4,42.8 Z" id="Shape"></path>
                <path d="M19.8,42.8 C21.2,43.5 22.9,43 23.6,41.6 C24.3,40.2 24.4,34 24.4,34 C24.4,34 19.3,37.7 18.6,39.1 C17.8,40.4 18.4,42 19.8,42.8 L19.8,42.8 L19.8,42.8 Z" id="Shape"></path>
            </g>
        </g>
    </g>
</svg>