<?xml version="1.0" encoding="UTF-8" standalone="no"?>
<svg width="37px" height="37px" viewBox="0 0 37 37" version="1.1" xmlns="http://www.w3.org/2000/svg" xmlns:xlink="http://www.w3.org/1999/xlink" xmlns:sketch="http://www.bohemiancoding.com/sketch/ns">
    <!-- Generator: Sketch 3.3.2 (12043) - http://www.bohemiancoding.com/sketch -->
    <title>wildlife</title>
    <desc>Created with Sketch.</desc>
    <defs></defs>
    <g id="Page-1" stroke="none" stroke-width="1" fill="none" fill-rule="evenodd" sketch:type="MSPage">
        <g id="wildlife" sketch:type="MSLayerGroup" fill="#000000">
            <path d="M35.9,12.1 C33.6,10.3 30,8.8 24.8,10.9 C23.9,9.9 22.9,9.2 21.9,8.7 C22.3,7.8 22.5,6.8 22.5,5.8 C22.5,2.6 20.6,0 18.3,0 C16,0 14.1,2.6 14.1,5.8 C14.1,6.9 14.3,7.9 14.7,8.7 C13.6,9.2 12.6,10 11.8,10.9 C6.6,8.8 2.9,10.3 0.7,12.1 C0.3,12.4 0.1,13 0.3,13.5 C0.5,14 1,14.3 1.5,14.3 C4.1,14.2 6.8,15.2 8.9,16.1 C8.4,17.7 8.1,19.5 8.1,21.3 C8.1,24.5 8.9,27.4 10.3,29.7 C8.8,31.6 8.3,33.7 8.2,35.4 C8.2,35.9 8.5,36.4 9,36.6 C9.5,36.8 10.1,36.7 10.4,36.2 C11.3,35.1 12.5,34.2 13.8,33.4 C15.2,34.3 16.7,34.8 18.4,34.8 C20.1,34.8 21.6,34.3 23,33.4 C24.2,34.2 25.5,35.1 26.4,36.2 C26.7,36.6 27.3,36.8 27.8,36.6 C28.3,36.4 28.6,35.9 28.6,35.4 C28.5,33.7 28,31.6 26.5,29.7 C27.9,27.4 28.7,24.5 28.7,21.3 C28.7,19.4 28.4,17.7 27.9,16.1 C30,15.2 32.8,14.3 35.3,14.3 C35.8,14.3 36.3,14 36.5,13.5 C36.5,13 36.3,12.5 35.9,12.1 L35.9,12.1 L35.9,12.1 Z" id="Shape" sketch:type="MSShapeGroup"></path>
        </g>
    </g>
</svg>