<?xml version="1.0" encoding="utf-8"?>
<!-- Generator: Adobe Illustrator 19.0.0, SVG Export Plug-In . SVG Version: 6.00 Build 0)  -->
<svg version="1.1" id="Layer_1" xmlns="http://www.w3.org/2000/svg" xmlns:xlink="http://www.w3.org/1999/xlink" x="0px" y="0px"
	 viewBox="0 0 1920 1080" style="enable-background:new 0 0 1920 1080;" xml:space="preserve">
<style type="text/css">
	.st0{clip-path:url(#SVGID_2_);}
</style>
<g>
	<g>
		<defs>
			<rect id="SVGID_1_" x="941" y="522" width="37" height="37"/>
		</defs>
		<clipPath id="SVGID_2_">
			<use xlink:href="#SVGID_1_"  style="overflow:visible;"/>
		</clipPath>
		<path class="st0" d="M976.9,534.1c-2.3-1.8-5.9-3.3-11.1-1.2c-0.9-1-1.9-1.7-2.9-2.2c0.4-0.9,0.6-1.9,0.6-2.9
			c0-3.2-1.9-5.8-4.2-5.8s-4.2,2.6-4.2,5.8c0,1.1,0.2,2.1,0.6,2.9c-1.1,0.5-2.1,1.3-2.9,2.2c-5.2-2.1-8.9-0.6-11.1,1.2
			c-0.4,0.3-0.6,0.9-0.4,1.4c0.2,0.5,0.7,0.8,1.2,0.8c2.6-0.1,5.3,0.9,7.4,1.8c-0.5,1.6-0.8,3.4-0.8,5.2c0,3.2,0.8,6.1,2.2,8.4
			c-1.5,1.9-2,4-2.1,5.7c0,0.5,0.3,1,0.8,1.2c0.5,0.2,1.1,0.1,1.4-0.4c0.9-1.1,2.1-2,3.4-2.8c1.4,0.9,2.9,1.4,4.6,1.4
			c1.7,0,3.2-0.5,4.6-1.4c1.2,0.8,2.5,1.7,3.4,2.8c0.3,0.4,0.9,0.6,1.4,0.4c0.5-0.2,0.8-0.7,0.8-1.2c-0.1-1.7-0.6-3.8-2.1-5.7
			c1.4-2.3,2.2-5.2,2.2-8.4c0-1.9-0.3-3.6-0.8-5.2c2.1-0.9,4.9-1.8,7.4-1.8c0.5,0,1-0.3,1.2-0.8C977.5,535,977.3,534.5,976.9,534.1
			L976.9,534.1z M976.9,534.1"/>
	</g>
</g>
</svg>
